<svg width="122" height="146" viewBox="0 0 122 146" fill="none" xmlns="http://www.w3.org/2000/svg">
<path fill-rule="evenodd" clip-rule="evenodd" d="M29.3012 72.3802C26.3325 71.1347 22.9786 70.8867 19.2816 71.9686C6.65764 75.6629 1.48823 85.5004 0.796865 97.2192C-0.171573 113.691 8.04566 133.967 15.4053 144.042C16.2655 145.219 17.9174 145.475 19.0943 144.617C20.2686 143.757 20.5271 142.105 19.6669 140.928C12.843 131.587 5.1667 112.804 6.06653 97.5306C6.62068 88.0837 10.5895 80.0117 20.7647 77.0325C22.9654 76.3886 24.9682 76.4783 26.7705 77.1116C26.1847 78.2859 25.6252 79.4628 25.0948 80.6397C22.9759 85.3526 19.8094 98.4384 20.9916 108.059C21.9283 115.672 25.525 121.132 32.9453 120.931C37.1937 120.818 40.3287 118.25 42.2101 114.042C44.5296 108.851 44.8463 100.911 43.2155 93.298C41.8618 86.9675 39.1755 80.893 35.4073 76.8081C34.8795 76.2355 34.3306 75.6999 33.7633 75.2038C46.134 53.2728 68.4609 32.9224 91.3841 24.2539C92.7457 23.7394 93.4317 22.2168 92.9171 20.8525C92.4026 19.4909 90.8774 18.8048 89.5158 19.3194C65.6057 28.3599 42.2999 49.5204 29.3012 72.3802ZM31.2038 80.0512C30.7552 80.9669 30.3223 81.8852 29.9106 82.8035C28.0081 87.0335 25.1688 98.7787 26.2296 107.416C26.7917 111.986 28.3512 115.775 32.8055 115.656C34.9904 115.598 36.4258 114.052 37.3916 111.888C38.6741 109.02 39.1307 105.13 38.9275 100.99C38.6082 94.5673 36.6687 87.5375 33.2541 82.566C32.6234 81.6477 31.94 80.8006 31.2038 80.0512Z" fill="#3C3679"/>
<path fill-rule="evenodd" clip-rule="evenodd" d="M73.7157 57.2596C75.774 45.2557 83.6455 32.4839 92.1029 23.6334C93.1083 22.5805 93.0714 20.9102 92.0185 19.9022C90.9656 18.8968 89.2926 18.9337 88.2872 19.9866C79.149 29.5523 70.7365 43.398 68.5147 56.3676C68.2693 57.8032 69.2352 59.1674 70.6707 59.4128C72.1062 59.6582 73.4703 58.6951 73.7157 57.2596Z" fill="#3C3679"/>
<path fill-rule="evenodd" clip-rule="evenodd" d="M88.5147 19.4789C79.8199 24.4424 66.4834 25.0916 56.7621 22.5742C55.3503 22.21 53.9095 23.0598 53.5454 24.4689C53.1812 25.878 54.0283 27.3188 55.4401 27.6856C66.37 30.5117 81.3556 29.6435 91.1324 24.0625C92.3963 23.3421 92.8371 21.7271 92.114 20.4631C91.391 19.1992 89.7787 18.7585 88.5147 19.4789Z" fill="#3C3679"/>
<path fill-rule="evenodd" clip-rule="evenodd" d="M109.081 3.1763C109.056 2.64059 109.061 2.11906 109.086 1.62946C109.172 0.157126 110.541 0.162198 110.647 0.164226C110.87 0.169294 111.864 0.232134 112.102 1.3801C112.117 1.44852 112.152 1.9442 112.163 2.13527C112.183 2.54276 112.193 2.94317 112.137 3.34508C112.188 4.02677 112.299 4.72822 112.512 5.38811C112.821 6.36223 113.323 7.26134 114.23 7.7403C115.852 8.60191 117.986 8.56693 119.77 8.78588C120.515 8.87711 121.083 9.49847 121.108 10.2486C121.128 10.9992 120.601 11.654 119.861 11.7903C117.631 12.2029 115.067 14.2308 113.435 15.8638C112.933 16.3655 112.37 17.5606 111.742 18.3259C111.235 18.9392 110.672 19.3502 110.14 19.5134C109.933 19.5768 108.782 19.8079 108.265 18.6168C108.123 18.2823 107.621 16.5307 107.576 16.331C107.302 15.1866 106.912 14.1643 106.147 13.2541C105.483 12.4649 104.677 11.7757 103.709 11.3935C103.318 11.2394 102.913 11.1224 102.507 11.0017C102.366 10.9845 101.965 10.9338 101.823 10.8857C101.534 10.7894 101.321 10.6384 101.169 10.4878C100.881 10.203 100.734 9.8629 100.708 9.47568C100.688 9.22024 100.723 8.91715 100.906 8.58112C101.043 8.34241 101.352 7.98306 101.909 7.74992C102.492 7.50613 103.744 7.27451 103.967 7.2142C105.518 6.79657 107.039 6.16153 108.23 5.0607C108.823 4.51029 108.959 3.91678 109.081 3.1763ZM110.074 7.48639C110.673 8.72609 111.565 9.76965 112.806 10.427C113.318 10.7002 113.876 10.9075 114.453 11.0686C113.262 11.8978 112.157 12.8405 111.281 13.7143C110.997 13.9986 110.688 14.4588 110.358 14.9641C109.973 13.6149 109.405 12.4031 108.473 11.2942C107.92 10.6404 107.297 10.0428 106.603 9.54461C107.86 9.0469 109.051 8.38094 110.074 7.48639Z" fill="#3C3679"/>
</svg>
