<svg width="28" height="36" viewBox="0 0 28 36" fill="none" xmlns="http://www.w3.org/2000/svg">
<path d="M23.3745 11.62C23.1428 11.3949 22.8178 11.2926 22.4997 11.3449C22.1811 11.397 21.9058 11.5971 21.758 11.8842C21.2496 12.8719 20.6038 13.7795 19.844 14.5819C19.9198 14.0023 19.9579 13.4192 19.9579 12.8346C19.9579 11.7128 19.8076 10.5584 19.5109 9.40301C18.5355 5.60813 15.9778 2.39887 12.4938 0.598138C12.1905 0.441415 11.829 0.446917 11.5306 0.612812C11.2322 0.778775 11.0367 1.08305 11.01 1.4234C10.7383 4.872 8.96202 8.00947 6.13371 10.0334C6.09628 10.0603 6.05912 10.0876 6.02196 10.1148C5.94498 10.1711 5.87242 10.2244 5.80464 10.2691C5.79401 10.2762 5.7835 10.2834 5.77318 10.2908C3.99439 11.5643 2.52669 13.262 1.5285 15.2008C0.514258 17.1728 0 19.2891 0 21.4905C0 22.6119 0.150336 23.7663 0.446865 24.9219C2.01173 31.0127 7.49293 35.2665 13.7762 35.2665C21.372 35.2665 27.5515 29.0866 27.5515 21.4905C27.5515 17.7446 26.0681 14.2392 23.3745 11.62Z" fill="#CBCFFA"/>
<path d="M13.2473 25.7836C15.5757 25.7836 17.4633 23.896 17.4633 21.5676C17.4633 19.2391 15.5757 17.3516 13.2473 17.3516C10.9188 17.3516 9.03125 19.2391 9.03125 21.5676C9.03125 23.896 10.9188 25.7836 13.2473 25.7836Z" fill="#F8F8F8"/>
</svg>
