<svg width="113" height="36" viewBox="0 0 113 36" fill="none" xmlns="http://www.w3.org/2000/svg">
<path d="M23.3745 11.1357C23.1428 10.9105 22.8178 10.8082 22.4997 10.8605C22.1811 10.9127 21.9058 11.1127 21.758 11.3998C21.2496 12.3875 20.6038 13.2952 19.844 14.0975C19.9198 13.5179 19.9579 12.9348 19.9579 12.3502C19.9579 11.2284 19.8076 10.074 19.5109 8.91863C18.5355 5.12375 15.9778 1.91449 12.4938 0.113763C12.1905 -0.0429603 11.829 -0.0374579 11.5306 0.128437C11.2322 0.2944 11.0367 0.598677 11.01 0.939027C10.7383 4.38763 8.96202 7.5251 6.13371 9.54901C6.09628 9.57596 6.05912 9.60327 6.02196 9.63045C5.94498 9.68676 5.87242 9.74002 5.80464 9.78473C5.79402 9.79181 5.7835 9.79901 5.77318 9.80641C3.99439 11.0799 2.52669 12.7776 1.5285 14.7164C0.514258 16.6885 0 18.8047 0 21.0061C0 22.1275 0.150336 23.282 0.446865 24.4375C2.01173 30.5283 7.49293 34.7822 13.7762 34.7822C21.372 34.7822 27.5515 28.6022 27.5515 21.0061C27.5515 17.2602 26.0681 13.7548 23.3745 11.1357Z" fill="#CBCFFA"/>
<path d="M13.2473 25.2992C15.5757 25.2992 17.4633 23.4117 17.4633 21.0832C17.4633 18.7548 15.5757 16.8672 13.2473 16.8672C10.9188 16.8672 9.03125 18.7548 9.03125 21.0832C9.03125 23.4117 10.9188 25.2992 13.2473 25.2992Z" fill="#F8F8F8"/>
<path d="M107.906 15.1685V12.5741H107.102V12H109.356V12.5741H108.565V15.1685H107.906ZM109.682 15.1685V12H110.32L111.507 13.5736H111.209L112.362 12H112.999V15.1685H112.341V12.7273L112.604 12.7868L111.384 14.3604H111.298L110.12 12.7868L110.341 12.7273V15.1685H109.682Z" fill="#131126"/>
<path d="M44.1197 28.8291C45.1814 28.8291 46.1203 28.6352 46.9371 28.2473C47.7535 27.839 48.3762 27.2266 48.8048 26.41V28.4616H53.0922V11.7422H48.4987V21.5105C48.4987 22.47 48.2129 23.2457 47.6414 23.8378C47.0695 24.4094 46.3348 24.6952 45.4367 24.6952C44.5383 24.6952 43.8035 24.4094 43.2316 23.8378C42.6601 23.2457 42.3744 22.47 42.3744 21.5105V11.7422H37.7812V21.878C37.7812 23.9603 38.3219 25.6445 39.4041 26.9306C40.5066 28.1963 42.0782 28.8291 44.1197 28.8291Z" fill="#131126"/>
<path d="M56.4453 10.2417H61.0384V5.64844H56.4453V10.2417ZM56.4453 28.4616H61.0384V11.7421H56.4453V28.4616Z" fill="#131126"/>
<path d="M66.4268 28.4619H71.0199V15.7233H74.6025V11.7424H71.0199V11.4975C71.0199 10.0072 71.8875 9.26206 73.6228 9.26206C73.9086 9.26206 74.2455 9.29271 74.6333 9.35394V5.43437C74.1639 5.33228 73.6228 5.28125 73.0101 5.28125C70.9279 5.28125 69.305 5.82224 68.1413 6.90419C66.9983 7.98617 66.4268 9.51726 66.4268 11.4975V11.7424H63.6094V15.7233H66.4268V28.4619Z" fill="#131126"/>
<path d="M76.9609 28.4657H81.5544V19.4629C81.5544 18.2176 81.9014 17.2582 82.5954 16.5845C83.2897 15.8904 84.1982 15.5433 85.3207 15.5433H86.7599V11.5625H85.7802C84.7593 11.5625 83.8508 11.7564 83.0548 12.1443C82.2792 12.5118 81.6769 13.2161 81.2483 14.2572V11.7462H76.9609V28.4657Z" fill="#131126"/>
<path d="M91.3801 35.2597C94.442 35.2597 96.6571 33.5142 98.025 30.0234L105.19 11.7422H100.26L96.3102 22.4904L92.3598 11.7422H87.4297L94.0134 28.4617L93.7072 29.166C93.4623 29.7172 93.1458 30.2071 92.758 30.6358C92.3702 31.0645 91.727 31.2789 90.8286 31.2789C90.0938 31.2789 89.3999 31.1768 88.7463 30.9726V34.7391C89.0937 34.9228 89.4915 35.0555 89.9409 35.1372C90.4104 35.2189 90.8902 35.2597 91.3801 35.2597Z" fill="#131126"/>
</svg>
