<svg width="63" height="63" viewBox="0 0 63 63" fill="none" xmlns="http://www.w3.org/2000/svg">
<path fill-rule="evenodd" clip-rule="evenodd" d="M11.2534 57.5225L4.48213 49.0871C2.85297 47.0576 1.96875 44.5619 1.96875 41.9932V11.4483C1.96875 7.60064 5.04706 4.40797 9.01828 4.13684L40.4226 1.99273C42.7041 1.83697 44.9718 2.4434 46.8459 3.71051L57.8798 11.1705C59.8548 12.5059 61.0313 14.6888 61.0313 17.0184V51.745C61.0313 55.5104 58.0044 58.628 54.1163 58.8673L19.2609 61.0129C16.1582 61.2039 13.1591 59.8966 11.2534 57.5225Z" fill="white"/>
<path d="M22.1533 26.7347V26.3348C22.1533 25.3212 22.9652 24.4804 24.0116 24.4106L31.6333 23.9017L42.1735 39.423V25.8005L39.4605 25.4388V25.2488C39.4605 24.2232 40.2909 23.377 41.3506 23.3227L48.2855 22.9674V23.9654C48.2855 24.4339 47.9372 24.8347 47.4597 24.9154L45.7908 25.1977V47.2589L43.6964 47.9792C41.9466 48.5809 39.9987 47.9368 38.997 46.4253L28.7643 30.9842V45.7219L31.9139 46.3246L31.8701 46.6168C31.7326 47.5319 30.9426 48.224 29.9868 48.2665L22.1533 48.6152C22.0498 47.6311 22.7873 46.7507 23.8048 46.6439L24.8352 46.5356V26.8854L22.1533 26.7347Z" fill="black"/>
<path fill-rule="evenodd" clip-rule="evenodd" d="M40.7124 5.84252L9.308 7.98662C7.4269 8.11505 5.96875 9.62737 5.96875 11.4499V41.9949C5.96875 43.7073 6.55823 45.3711 7.64434 46.7241L14.4156 55.1595C15.5104 56.5234 17.2332 57.2744 19.0157 57.1646L53.871 55.0191C55.6574 54.9091 57.0481 53.4767 57.0481 51.7467V17.02C57.0481 15.9497 56.5076 14.9467 55.6002 14.3332L44.5663 6.87318C43.4418 6.11291 42.0813 5.74905 40.7124 5.84252ZM10.8653 11.9264C10.4285 11.603 10.6364 10.9293 11.1851 10.8899L40.9236 8.75691C41.8711 8.68895 42.8126 8.94987 43.5789 9.49277L49.5457 13.7202C49.7723 13.8807 49.666 14.2271 49.3856 14.2424L17.8925 15.9552C16.9395 16.007 15.9987 15.727 15.2409 15.166L10.8653 11.9264ZM16.4154 21.3246C16.4154 20.3015 17.2419 19.4564 18.2989 19.3988L51.5959 17.5855C52.626 17.5294 53.4932 18.3215 53.4932 19.3187V49.3883C53.4932 50.4095 52.6695 51.2538 51.6147 51.3138L18.5285 53.1964C17.3821 53.2616 16.4154 52.3807 16.4154 51.2708V21.3246Z" fill="black"/>
</svg>
