<svg width="48" height="51" viewBox="0 0 48 51" fill="none" xmlns="http://www.w3.org/2000/svg">
<rect y="0.5" width="47.3743" height="50" rx="5" fill="#FAE0E1"/>
<path fill-rule="evenodd" clip-rule="evenodd" d="M19.665 17C17.135 17 15.5 18.733 15.5 21.416V29.584C15.5 32.267 17.135 34 19.665 34H28.333C30.864 34 32.5 32.267 32.5 29.584V21.416C32.5 18.733 30.864 17 28.334 17H19.665ZM28.333 35.5H19.665C16.276 35.5 14 33.122 14 29.584V21.416C14 17.878 16.276 15.5 19.665 15.5H28.334C31.723 15.5 34 17.878 34 21.416V29.584C34 33.122 31.723 35.5 28.333 35.5Z" fill="black"/>
<path fill-rule="evenodd" clip-rule="evenodd" d="M22.8134 28.6232C22.6224 28.6232 22.4294 28.5502 22.2834 28.4032L19.9094 26.0302C19.6164 25.7372 19.6164 25.2632 19.9094 24.9702C20.2024 24.6772 20.6764 24.6772 20.9694 24.9702L22.8134 26.8122L27.0294 22.5972C27.3224 22.3042 27.7964 22.3042 28.0894 22.5972C28.3824 22.8902 28.3824 23.3642 28.0894 23.6572L23.3434 28.4032C23.1974 28.5502 23.0054 28.6232 22.8134 28.6232Z" fill="black"/>
</svg>
