<svg width="63" height="63" viewBox="0 0 63 63" fill="none" xmlns="http://www.w3.org/2000/svg">
<path d="M3.9375 31.4996C3.9375 46.7196 16.2794 59.0625 31.5011 59.0625C46.7227 59.0625 59.0625 46.7196 59.0625 31.4996C59.0625 16.2756 46.7227 3.9375 31.5011 3.9375C16.2794 3.9375 3.9375 16.2756 3.9375 31.4996Z" fill="url(#paint0_linear_957_570)"/>
<path fill-rule="evenodd" clip-rule="evenodd" d="M38.6778 49.4699C39.4004 48.7739 43.6415 44.6899 46.0808 41.9998C48.4057 39.429 49.5749 36.1212 49.3649 32.6912C49.1492 29.1587 47.5006 25.8873 44.7194 23.4849C40.1263 19.5136 32.7025 19.5943 28.171 23.6612C26.518 25.1424 24.6509 27.1743 24.5712 27.2614C23.3796 28.5572 23.4677 30.5747 24.7611 31.7656C26.0566 32.9545 28.0682 32.8702 29.2629 31.5758C29.279 31.5567 31.0012 29.6825 32.4221 28.4102C34.8078 26.2685 38.6233 26.6396 40.5551 28.3098C42.0268 29.5801 42.8962 31.2733 43.0065 33.0774C43.1103 34.7798 42.5246 36.4295 41.3609 37.7147C39.0619 40.2553 34.8298 44.3278 34.245 44.8905C34.2037 44.9302 34.1807 44.9524 34.1776 44.9555C32.9067 46.173 32.8604 48.1874 34.0772 49.4621C34.7027 50.1158 35.5381 50.4468 36.3803 50.4468C37.17 50.4468 37.9625 50.1528 38.5781 49.5659C38.5916 49.5529 38.6254 49.5202 38.6778 49.4699ZM18.6694 39.2963C20.9299 41.2512 23.8744 42.2268 26.8229 42.2268C29.868 42.2268 32.9168 41.1875 35.2175 39.1207C36.7332 37.7594 38.4329 35.9368 38.763 35.5827C38.7926 35.5511 38.8112 35.5311 38.8176 35.5244C40.0086 34.2286 39.9222 32.2097 38.6277 31.02C37.3347 29.8274 35.3183 29.9105 34.1283 31.2076C34.1277 31.2083 34.1247 31.2115 34.1195 31.2172C33.9836 31.3639 32.3346 33.146 30.9677 34.3753C28.5807 36.5129 24.7666 36.1471 22.8324 34.4732C21.3624 33.202 20.493 31.5083 20.3817 29.7029C20.2779 28.0021 20.8646 26.3562 22.0283 25.066C24.4909 22.3484 29.1637 17.8738 29.2116 17.8282C30.4832 16.612 30.5264 14.5949 29.3123 13.3216C28.0952 12.0499 26.081 12.0013 24.8101 13.2191L24.7891 13.2392C24.3963 13.6161 19.8631 17.9648 17.3104 20.7852C14.9818 23.3546 13.8174 26.6621 14.0233 30.0909C14.2407 33.6252 15.8894 36.8944 18.6694 39.2963Z" fill="white"/>
<defs>
<linearGradient id="paint0_linear_957_570" x1="3.9375" y1="59.0625" x2="3.9375" y2="3.9375" gradientUnits="userSpaceOnUse">
<stop stop-color="#2255FF"/>
<stop offset="1" stop-color="#00AAFF"/>
</linearGradient>
</defs>
</svg>
