<svg width="48" height="50" viewBox="0 0 48 50" fill="none" xmlns="http://www.w3.org/2000/svg">
<rect width="47.3743" height="50" rx="5" fill="#FAE0E1"/>
<path fill-rule="evenodd" clip-rule="evenodd" d="M19.665 16.5C17.135 16.5 15.5 18.233 15.5 20.916V29.084C15.5 31.767 17.135 33.5 19.665 33.5H28.333C30.864 33.5 32.5 31.767 32.5 29.084V20.916C32.5 18.233 30.864 16.5 28.334 16.5H19.665ZM28.333 35H19.665C16.276 35 14 32.622 14 29.084V20.916C14 17.378 16.276 15 19.665 15H28.334C31.723 15 34 17.378 34 20.916V29.084C34 32.622 31.723 35 28.333 35V35Z" fill="#131126"/>
<path fill-rule="evenodd" clip-rule="evenodd" d="M22.8112 28.1207C22.6202 28.1207 22.4272 28.0478 22.2812 27.9008L19.9073 25.5278C19.6142 25.2348 19.6142 24.7608 19.9073 24.4678C20.2003 24.1748 20.6742 24.1748 20.9672 24.4678L22.8112 26.3098L27.0272 22.0948C27.3202 21.8017 27.7942 21.8017 28.0872 22.0948C28.3802 22.3878 28.3802 22.8617 28.0872 23.1547L23.3412 27.9008C23.1952 28.0478 23.0032 28.1207 22.8112 28.1207" fill="#131126"/>
</svg>
