<svg width="48" height="51" viewBox="0 0 48 51" fill="none" xmlns="http://www.w3.org/2000/svg">
<rect x="0.374268" y="0.5" width="47.3743" height="50" rx="5" fill="#CBCFFA"/>
<path fill-rule="evenodd" clip-rule="evenodd" d="M20.0393 17C17.5093 17 15.8743 18.733 15.8743 21.416V29.584C15.8743 32.267 17.5093 34 20.0393 34H28.7073C31.2383 34 32.8743 32.267 32.8743 29.584V21.416C32.8743 18.733 31.2383 17 28.7083 17H20.0393ZM28.7073 35.5H20.0393C16.6503 35.5 14.3743 33.122 14.3743 29.584V21.416C14.3743 17.878 16.6503 15.5 20.0393 15.5H28.7083C32.0973 15.5 34.3743 17.878 34.3743 21.416V29.584C34.3743 33.122 32.0973 35.5 28.7073 35.5Z" fill="black"/>
<path fill-rule="evenodd" clip-rule="evenodd" d="M23.1878 28.6232C22.9968 28.6232 22.8038 28.5502 22.6578 28.4032L20.2838 26.0302C19.9908 25.7372 19.9908 25.2632 20.2838 24.9702C20.5768 24.6772 21.0508 24.6772 21.3438 24.9702L23.1878 26.8122L27.4038 22.5972C27.6968 22.3042 28.1708 22.3042 28.4638 22.5972C28.7568 22.8902 28.7568 23.3642 28.4638 23.6572L23.7178 28.4032C23.5718 28.5502 23.3798 28.6232 23.1878 28.6232Z" fill="black"/>
</svg>
