<svg width="48" height="50" viewBox="0 0 48 50" fill="none" xmlns="http://www.w3.org/2000/svg">
<rect width="47.3743" height="50" rx="5" fill="#F3DEB3"/>
<path fill-rule="evenodd" clip-rule="evenodd" d="M24 16.5C19.313 16.5 15.5 20.313 15.5 25C15.5 29.687 19.313 33.5 24 33.5C28.687 33.5 32.5 29.687 32.5 25C32.5 20.313 28.687 16.5 24 16.5M24 35C18.486 35 14 30.514 14 25C14 19.486 18.486 15 24 15C29.514 15 34 19.486 34 25C34 30.514 29.514 35 24 35" fill="black"/>
<path fill-rule="evenodd" clip-rule="evenodd" d="M27.4341 28.6908C27.3031 28.6908 27.1711 28.6567 27.0501 28.5857L23.2801 26.3368C23.0541 26.2008 22.9141 25.9558 22.9141 25.6918V20.8438C22.9141 20.4297 23.2501 20.0938 23.6641 20.0938C24.0791 20.0938 24.4141 20.4297 24.4141 20.8438V25.2657L27.8191 27.2958C28.1741 27.5088 28.2911 27.9687 28.0791 28.3247C27.9381 28.5597 27.6891 28.6908 27.4341 28.6908" fill="black"/>
</svg>
