<svg width="20" height="21" viewBox="0 0 20 21" fill="none" xmlns="http://www.w3.org/2000/svg">
<path fill-rule="evenodd" clip-rule="evenodd" d="M10 2C5.313 2 1.5 5.813 1.5 10.5C1.5 15.187 5.313 19 10 19C14.687 19 18.5 15.187 18.5 10.5C18.5 5.813 14.687 2 10 2M10 20.5C4.486 20.5 0 16.014 0 10.5C0 4.986 4.486 0.5 10 0.5C15.514 0.5 20 4.986 20 10.5C20 16.014 15.514 20.5 10 20.5" fill="black"/>
<path fill-rule="evenodd" clip-rule="evenodd" d="M13.4341 14.1908C13.3031 14.1908 13.1711 14.1567 13.0501 14.0857L9.28006 11.8368C9.05406 11.7008 8.91406 11.4558 8.91406 11.1918V6.34375C8.91406 5.92975 9.25006 5.59375 9.66406 5.59375C10.0791 5.59375 10.4141 5.92975 10.4141 6.34375V10.7657L13.8191 12.7958C14.1741 13.0088 14.2911 13.4687 14.0791 13.8247C13.9381 14.0597 13.6891 14.1908 13.4341 14.1908" fill="black"/>
</svg>
