<svg width="63" height="63" viewBox="0 0 63 63" fill="none" xmlns="http://www.w3.org/2000/svg">
<circle cx="31.5" cy="31.5" r="27.5625" fill="#5FCF80"/>
<path d="M47.0953 20.3209C45.5257 19.3819 43.7548 18.0645 42.1173 19.7482C40.0826 22.6376 36.3472 26.5279 38.2533 30.3079C39.0228 31.7585 40.2945 32.8409 41.3167 34.1022C41.9164 34.7189 42.2329 35.5219 42.1173 36.3931C41.9781 37.5744 41.0382 38.505 39.8894 38.6482C38.3577 38.8272 37.0349 37.5744 37.0349 36.0352C36.8957 35.2119 37.1046 33.3505 35.7121 33.1357C34.807 32.9925 33.6583 34.4602 33.0665 36.3931C32.5929 37.9893 32.8576 39.3474 32.8576 40.9391C32.8576 42.6445 31.623 44.1776 29.7943 43.9817C28.5759 43.8386 27.5316 42.8363 27.3575 41.5834C27.2047 40.5885 27.6333 39.5773 28.2278 38.7914C28.8196 37.8965 29.7246 36.5363 30.1772 35.2834C30.6645 33.959 31.3801 32.9031 30.4557 32.205C29.5312 31.507 25.6085 37.347 23.4587 36.9658C22.484 36.7869 21.7181 35.9636 21.5441 34.9971C21.2656 33.5295 22.2055 32.2408 23.4935 31.9903C25.0053 31.7159 29.4858 30.0306 28.9936 28.1959C28.5463 26.6321 24.7022 29.5292 23.4587 29.413C22.2751 29.3772 21.3352 28.3391 21.3004 27.1221C21.3004 25.7607 22.3876 24.7954 23.7024 24.7954C25.2429 24.7954 26.7661 25.4454 28.3322 25.0817C32.3465 24.1905 33.8496 20.6105 35.8514 17.4215C36.7913 15.9181 36.3387 13.8778 34.807 12.9829C32.9276 11.9361 30.9842 11.3142 28.9588 12.5175L15.8699 20.3209C14.5819 21.0727 13.7812 22.5045 13.7812 24.0437V39.0062C13.7812 40.5454 14.5819 41.9772 15.8699 42.7289L28.9936 50.4965C30.5253 51.4272 32.4399 51.4272 34.0064 50.4965L47.1301 42.7289C48.4181 41.9772 49.2188 40.5454 49.2188 39.0062V24.0437C49.1839 22.5045 48.3833 21.0727 47.0953 20.3209Z" fill="white"/>
</svg>
