<svg width="48" height="50" viewBox="0 0 48 50" fill="none" xmlns="http://www.w3.org/2000/svg">
<rect width="47.3743" height="50" rx="5" fill="#CBCFFA"/>
<mask id="mask0_1064_415" style="mask-type:luminance" maskUnits="userSpaceOnUse" x="14" y="21" width="20" height="15">
<path fill-rule="evenodd" clip-rule="evenodd" d="M14 21.7969H33.9996V35.5409H14V21.7969Z" fill="white"/>
</mask>
<g mask="url(#mask0_1064_415)">
<path fill-rule="evenodd" clip-rule="evenodd" d="M29.565 35.5409H18.435C15.99 35.5409 14 33.5519 14 31.1059V26.2309C14 23.7859 15.99 21.7969 18.435 21.7969H19.368C19.782 21.7969 20.118 22.1329 20.118 22.5469C20.118 22.9609 19.782 23.2969 19.368 23.2969H18.435C16.816 23.2969 15.5 24.6129 15.5 26.2309V31.1059C15.5 32.7249 16.816 34.0409 18.435 34.0409H29.565C31.183 34.0409 32.5 32.7249 32.5 31.1059V26.2219C32.5 24.6089 31.188 23.2969 29.576 23.2969H28.633C28.219 23.2969 27.883 22.9609 27.883 22.5469C27.883 22.1329 28.219 21.7969 28.633 21.7969H29.576C32.015 21.7969 34 23.7819 34 26.2219V31.1059C34 33.5519 32.01 35.5409 29.565 35.5409" fill="black"/>
</g>
<mask id="mask1_1064_415" style="mask-type:luminance" maskUnits="userSpaceOnUse" x="23" y="15" width="2" height="14">
<path fill-rule="evenodd" clip-rule="evenodd" d="M23.25 15H24.75V28.5409H23.25V15Z" fill="white"/>
</mask>
<g mask="url(#mask1_1064_415)">
<path fill-rule="evenodd" clip-rule="evenodd" d="M24 28.541C23.586 28.541 23.25 28.205 23.25 27.791V15.75C23.25 15.336 23.586 15 24 15C24.414 15 24.75 15.336 24.75 15.75V27.791C24.75 28.205 24.414 28.541 24 28.541" fill="black"/>
</g>
<path fill-rule="evenodd" clip-rule="evenodd" d="M21.0857 19.4271C20.8947 19.4271 20.7027 19.3541 20.5567 19.2081C20.2637 18.9161 20.2617 18.4421 20.5547 18.1481L23.4697 15.2201C23.7507 14.9371 24.2507 14.9371 24.5317 15.2201L27.4477 18.1481C27.7397 18.4421 27.7387 18.9161 27.4457 19.2081C27.1517 19.5001 26.6777 19.5001 26.3857 19.2061L24.0007 16.8121L21.6167 19.2061C21.4707 19.3541 21.2777 19.4271 21.0857 19.4271" fill="black"/>
</svg>
