<svg width="63" height="63" viewBox="0 0 63 63" fill="none" xmlns="http://www.w3.org/2000/svg">
<path d="M37.3179 37.3303C33.578 38.7376 29.3871 38.7402 25.6471 37.3311C24.238 33.5952 24.2376 29.4052 25.6449 25.6687C29.384 24.259 33.579 24.2588 37.3181 25.6685C38.7267 29.4038 38.726 33.5949 37.3179 37.3303ZM58.6793 26.9054H42.5801L53.9633 15.5288C52.1768 13.0209 49.9713 10.8178 47.4619 9.0324L36.0778 20.409V4.32029C33.0396 3.80951 29.9236 3.81029 26.8854 4.32029V20.409L15.5014 9.0324C12.9925 10.8166 10.7863 13.0227 8.99972 15.5288L20.3846 26.9054H4.28563C3.88824 30.0328 3.75913 32.9718 4.28563 36.0927H20.3848L8.99994 47.4694C10.7909 49.981 12.9881 52.1768 15.5014 53.9666L26.8854 42.5891V58.6787C29.924 59.1876 33.039 59.1879 36.0776 58.6787V42.5891L47.4627 53.9666C49.9732 52.1794 52.1749 49.9782 53.9633 47.4694L42.5784 36.0927H58.6793C59.1902 33.0591 59.1902 29.9391 58.6793 26.9054Z" fill="#FF4A00"/>
</svg>
